# This file uses centimeters as units for non-parametric coordinates.

mtllib Platform Support.mtl
g default
v -0.175119 0.107404 0.175119
v -0.175119 0.398375 0.175119
v -0.175119 0.398375 -0.175119
v 0.175119 0.398375 -0.175119
v -0.175119 0.107404 -0.175119
v 0.175119 0.107404 -0.175119
v 0.175119 0.107404 0.000017
v 0.000017 0.107404 0.175119
v 0.175119 0.398375 0.000017
v 0.000017 0.398375 0.175119
v -0.122212 -0.004319 0.130454
v -0.122212 2.995681 0.130454
v -0.122212 2.995681 -0.119546
v 0.127788 2.995681 -0.119546
v -0.122212 -0.004319 -0.119546
v 0.127788 -0.004319 -0.119546
v 0.127788 -0.004319 0.005466
v 0.002800 -0.004319 0.130454
v 0.127788 2.995681 0.005466
v 0.002800 2.995681 0.130454
vt 0.783281 0.464676
vt 0.696562 0.464676
vt 0.696562 0.412479
vt 0.783281 0.412479
vt 0.696562 0.538478
vt 0.783281 0.538478
vt 0.698868 0.379750
vt 0.698868 0.265067
vt 0.794144 0.265067
vt 0.794144 0.379750
vt 0.618941 0.985969
vt 0.618941 0.014031
vt 0.659442 0.014031
vt 0.659442 0.985969
vt 0.561675 0.014031
vt 0.561675 0.985969
vt 0.432362 0.008838
vt 0.514223 0.008838
vt 0.514223 0.991162
vt 0.432362 0.991162
vt 0.682969 0.974568
vt 0.682969 0.917221
vt 0.740305 0.859886
vt 0.797652 0.859886
vt 0.797652 0.974568
vt 0.690919 0.564002
vt 0.805601 0.564002
vt 0.805601 0.621349
vt 0.748266 0.678684
vt 0.690919 0.678684
vt 0.706669 0.154545
vt 0.747603 0.154545
vt 0.788529 0.195471
vt 0.788529 0.236405
vt 0.706669 0.236405
vt 0.705559 0.029481
vt 0.762906 0.029481
vt 0.762906 0.124757
vt 0.705559 0.124757
vt 0.690434 0.831202
vt 0.690435 0.716519
vt 0.785710 0.716519
vt 0.785710 0.831202
vt 0.237729 0.008838
vt 0.278664 0.008838
vt 0.278664 0.991162
vt 0.237729 0.991162
vt 0.306341 0.008837
vt 0.388202 0.008837
vt 0.388202 0.991162
vt 0.306341 0.991162
vn 0.000000 0.000000 1.000000
vn 0.000000 0.000000 1.000000
vn 0.000000 0.000000 1.000000
vn 0.000000 0.000000 1.000000
vn 0.000000 1.000000 0.000000
vn 0.000000 1.000000 0.000000
vn 0.000000 1.000000 0.000000
vn 0.000000 1.000000 0.000000
vn 0.000000 1.000000 0.000000
vn 0.000000 0.000000 -1.000000
vn 0.000000 0.000000 -1.000000
vn 0.000000 0.000000 -1.000000
vn 0.000000 0.000000 -1.000000
vn 0.000000 -1.000000 0.000000
vn 0.000000 -1.000000 0.000000
vn 0.000000 -1.000000 0.000000
vn 0.000000 -1.000000 0.000000
vn 0.000000 -1.000000 0.000000
vn 1.000000 0.000000 0.000000
vn 1.000000 0.000000 0.000000
vn 1.000000 0.000000 0.000000
vn 1.000000 0.000000 0.000000
vn -1.000000 0.000000 0.000000
vn -1.000000 0.000000 0.000000
vn -1.000000 0.000000 0.000000
vn -1.000000 0.000000 0.000000
vn 0.707107 0.000000 0.707107
vn 0.707107 0.000000 0.707107
vn 0.707107 0.000000 0.707107
vn 0.707107 0.000000 0.707107
vn 0.000000 0.000000 1.000000
vn 0.000000 0.000000 1.000000
vn 0.000000 0.000000 1.000000
vn 0.000000 0.000000 1.000000
vn 0.000000 1.000000 0.000000
vn 0.000000 1.000000 0.000000
vn 0.000000 1.000000 0.000000
vn 0.000000 1.000000 0.000000
vn 0.000000 1.000000 0.000000
vn 0.000000 0.000000 -1.000000
vn 0.000000 0.000000 -1.000000
vn 0.000000 0.000000 -1.000000
vn 0.000000 0.000000 -1.000000
vn 1.000000 0.000000 0.000000
vn 1.000000 0.000000 0.000000
vn 1.000000 0.000000 0.000000
vn 1.000000 0.000000 0.000000
vn -1.000000 0.000000 0.000000
vn -1.000000 0.000000 0.000000
vn -1.000000 0.000000 0.000000
vn -1.000000 0.000000 0.000000
vn 0.707107 0.000000 0.707107
vn 0.707107 0.000000 0.707107
vn 0.707107 0.000000 0.707107
vn 0.707107 0.000000 0.707107
s off
g pCube138
usemtl initialShadingGroup
f 1/36/1 8/37/2 10/38/3 2/39/4
f 2/21/5 10/22/6 9/23/7 4/24/8 3/25/9
f 3/40/10 4/41/11 6/42/12 5/43/13
f 5/26/14 6/27/15 7/28/16 8/29/17 1/30/18
f 9/1/19 7/2/20 6/3/21 4/4/22
f 5/7/23 1/8/24 2/9/25 3/10/26
f 8/5/27 7/2/28 9/1/29 10/6/30
f 11/44/31 18/45/32 20/46/33 12/47/34
f 12/31/35 20/32/36 19/33/37 14/34/38 13/35/39
f 13/48/40 14/49/41 16/50/42 15/51/43
f 19/11/44 17/12/45 16/13/46 14/14/47
f 15/17/48 11/18/49 12/19/50 13/20/51
f 18/15/52 17/12/53 19/11/54 20/16/55
g default
v -0.175119 0.107404 0.175119
v -0.175119 0.398375 0.175119
v -0.175119 0.398375 -0.175119
v 0.175119 0.398375 -0.175119
v -0.175119 0.107404 -0.175119
v 0.175119 0.107404 -0.175119
v 0.175119 0.107404 0.000017
v 0.000017 0.107404 0.175119
v 0.175119 0.398375 0.000017
v 0.000017 0.398375 0.175119
v -0.122212 -0.004319 0.130454
v -0.122212 2.995681 0.130454
v -0.122212 2.995681 -0.119546
v 0.127788 2.995681 -0.119546
v -0.122212 -0.004319 -0.119546
v 0.127788 -0.004319 -0.119546
v 0.127788 -0.004319 0.005466
v 0.002800 -0.004319 0.130454
v 0.127788 2.995681 0.005466
v 0.002800 2.995681 0.130454
vt 0.783281 0.464676
vt 0.696562 0.464676
vt 0.696562 0.412479
vt 0.783281 0.412479
vt 0.696562 0.538478
vt 0.783281 0.538478
vt 0.698868 0.379750
vt 0.698868 0.265067
vt 0.794144 0.265067
vt 0.794144 0.379750
vt 0.618941 0.985969
vt 0.618941 0.014031
vt 0.659442 0.014031
vt 0.659442 0.985969
vt 0.561675 0.014031
vt 0.561675 0.985969
vt 0.432362 0.008838
vt 0.514223 0.008838
vt 0.514223 0.991162
vt 0.432362 0.991162
vt 0.682969 0.974568
vt 0.682969 0.917221
vt 0.740305 0.859886
vt 0.797652 0.859886
vt 0.797652 0.974568
vt 0.690919 0.564002
vt 0.805601 0.564002
vt 0.805601 0.621349
vt 0.748266 0.678684
vt 0.690919 0.678684
vt 0.706669 0.154545
vt 0.747603 0.154545
vt 0.788529 0.195471
vt 0.788529 0.236405
vt 0.706669 0.236405
vt 0.705559 0.029481
vt 0.762906 0.029481
vt 0.762906 0.124757
vt 0.705559 0.124757
vt 0.690434 0.831202
vt 0.690435 0.716519
vt 0.785710 0.716519
vt 0.785710 0.831202
vt 0.237729 0.008838
vt 0.278664 0.008838
vt 0.278664 0.991162
vt 0.237729 0.991162
vt 0.306341 0.008837
vt 0.388202 0.008837
vt 0.388202 0.991162
vt 0.306341 0.991162
vn 0.000000 0.000000 1.000000
vn 0.000000 0.000000 1.000000
vn 0.000000 0.000000 1.000000
vn 0.000000 0.000000 1.000000
vn 0.000000 1.000000 0.000000
vn 0.000000 1.000000 0.000000
vn 0.000000 1.000000 0.000000
vn 0.000000 1.000000 0.000000
vn 0.000000 1.000000 0.000000
vn 0.000000 0.000000 -1.000000
vn 0.000000 0.000000 -1.000000
vn 0.000000 0.000000 -1.000000
vn 0.000000 0.000000 -1.000000
vn 0.000000 -1.000000 0.000000
vn 0.000000 -1.000000 0.000000
vn 0.000000 -1.000000 0.000000
vn 0.000000 -1.000000 0.000000
vn 0.000000 -1.000000 0.000000
vn 1.000000 0.000000 0.000000
vn 1.000000 0.000000 0.000000
vn 1.000000 0.000000 0.000000
vn 1.000000 0.000000 0.000000
vn -1.000000 0.000000 0.000000
vn -1.000000 0.000000 0.000000
vn -1.000000 0.000000 0.000000
vn -1.000000 0.000000 0.000000
vn 0.707107 0.000000 0.707107
vn 0.707107 0.000000 0.707107
vn 0.707107 0.000000 0.707107
vn 0.707107 0.000000 0.707107
vn 0.000000 0.000000 1.000000
vn 0.000000 0.000000 1.000000
vn 0.000000 0.000000 1.000000
vn 0.000000 0.000000 1.000000
vn 0.000000 1.000000 0.000000
vn 0.000000 1.000000 0.000000
vn 0.000000 1.000000 0.000000
vn 0.000000 1.000000 0.000000
vn 0.000000 1.000000 0.000000
vn 0.000000 0.000000 -1.000000
vn 0.000000 0.000000 -1.000000
vn 0.000000 0.000000 -1.000000
vn 0.000000 0.000000 -1.000000
vn 1.000000 0.000000 0.000000
vn 1.000000 0.000000 0.000000
vn 1.000000 0.000000 0.000000
vn 1.000000 0.000000 0.000000
vn -1.000000 0.000000 0.000000
vn -1.000000 0.000000 0.000000
vn -1.000000 0.000000 0.000000
vn -1.000000 0.000000 0.000000
vn 0.707107 0.000000 0.707107
vn 0.707107 0.000000 0.707107
vn 0.707107 0.000000 0.707107
vn 0.707107 0.000000 0.707107
s off
g pCube138
f 21/87/56 28/88/57 30/89/58 22/90/59
f 22/72/60 30/73/61 29/74/62 24/75/63 23/76/64
f 23/91/65 24/92/66 26/93/67 25/94/68
f 25/77/69 26/78/70 27/79/71 28/80/72 21/81/73
f 29/52/74 27/53/75 26/54/76 24/55/77
f 25/58/78 21/59/79 22/60/80 23/61/81
f 28/56/82 27/53/83 29/52/84 30/57/85
f 31/95/86 38/96/87 40/97/88 32/98/89
f 32/82/90 40/83/91 39/84/92 34/85/93 33/86/94
f 33/99/95 34/100/96 36/101/97 35/102/98
f 39/62/99 37/63/100 36/64/101 34/65/102
f 35/68/103 31/69/104 32/70/105 33/71/106
f 38/66/107 37/63/108 39/62/109 40/67/110
