# This file uses centimeters as units for non-parametric coordinates.

mtllib Roof.mtl
g default
v -3.000000 2.990464 0.000000
v -2.700000 2.990464 0.000000
v -2.400000 2.990466 0.000000
v -2.100000 2.990466 0.000000
v -1.800000 2.990466 0.000000
v -1.500000 2.990466 0.000000
v -1.200000 2.990466 0.000000
v -0.900000 2.990466 0.000000
v -0.600000 2.990466 0.000000
v -0.300000 2.990466 0.000000
v 0.000000 2.990466 0.000000
v -3.000000 2.990463 -0.300000
v -2.700000 2.990461 -0.300000
v -2.400000 2.990461 -0.300000
v -2.100000 2.990461 -0.300000
v -1.800000 2.990461 -0.300000
v -1.500000 2.990461 -0.300000
v -1.200000 2.990461 -0.300000
v -0.900000 2.990461 -0.300000
v -0.600000 2.990461 -0.300000
v -0.300000 2.990461 -0.300000
v 0.000000 2.990461 -0.300000
v -3.000000 3.067288 -0.600000
v -2.700000 3.067288 -0.600000
v -2.400000 3.067288 -0.600000
v -2.100000 3.067288 -0.600000
v -1.800000 3.067288 -0.600000
v -1.500000 3.067288 -0.600000
v -1.200000 3.067288 -0.600000
v -0.900000 3.067288 -0.600000
v -0.600000 3.067288 -0.600000
v -0.300000 3.067288 -0.600000
v 0.000000 3.067288 -0.600000
v -3.000000 2.990465 -0.900000
v -2.700000 2.990465 -0.900000
v -2.400000 2.990465 -0.900000
v -2.100000 2.990465 -0.900000
v -1.800000 2.990465 -0.900000
v -1.500000 2.990465 -0.900000
v -1.200000 2.990465 -0.900000
v -0.900000 2.990465 -0.900000
v -0.600000 2.990465 -0.900000
v -0.300000 2.990465 -0.900000
v 0.000000 2.990465 -0.900000
v -3.000000 2.990464 -1.200000
v -2.700000 2.990464 -1.200000
v -2.400000 2.990464 -1.200000
v -2.100000 2.990464 -1.200000
v -1.800000 2.990464 -1.200000
v -1.500000 2.990464 -1.200000
v -1.200000 2.990464 -1.200000
v -0.900000 2.990464 -1.200000
v -0.600000 2.990464 -1.200000
v -0.300000 2.990464 -1.200000
v 0.000000 2.990464 -1.200000
v -3.000000 3.067288 -1.500000
v -2.700000 3.067288 -1.500000
v -2.400000 3.067288 -1.500000
v -2.100000 3.067288 -1.500000
v -1.800000 3.067288 -1.500000
v -1.500000 3.067288 -1.500000
v -1.200000 3.067288 -1.500000
v -0.900000 3.067288 -1.500000
v -0.600000 3.067288 -1.500000
v -0.300000 3.067288 -1.500000
v 0.000000 3.067288 -1.500000
v -3.000000 2.990464 -1.800000
v -2.700000 2.990464 -1.800000
v -2.400000 2.990464 -1.800000
v -2.100000 2.990464 -1.800000
v -1.800000 2.990464 -1.800000
v -1.500000 2.990464 -1.800000
v -1.200000 2.990464 -1.800000
v -0.900000 2.990464 -1.800000
v -0.600000 2.990464 -1.800000
v -0.300000 2.990464 -1.800000
v 0.000000 2.990464 -1.800000
v -3.000000 2.990464 -2.100000
v -2.700000 2.990464 -2.100000
v -2.400000 2.990464 -2.100000
v -2.100000 2.990464 -2.100000
v -1.800000 2.990464 -2.100000
v -1.500000 2.990464 -2.100000
v -1.200000 2.990464 -2.100000
v -0.900000 2.990464 -2.100000
v -0.600000 2.990464 -2.100000
v -0.300000 2.990464 -2.100000
v 0.000000 2.990464 -2.100000
v -3.000000 3.067288 -2.400000
v -2.700000 3.067288 -2.400000
v -2.400000 3.067288 -2.400000
v -2.100000 3.067288 -2.400000
v -1.800000 3.067288 -2.400000
v -1.500000 3.067288 -2.400000
v -1.200000 3.067288 -2.400000
v -0.900000 3.067288 -2.400000
v -0.600000 3.067288 -2.400000
v -0.300000 3.067288 -2.400000
v 0.000000 3.067288 -2.400000
v -3.000000 2.990464 -2.700000
v -2.700000 2.990464 -2.700000
v -2.400000 2.990464 -2.700000
v -2.100000 2.990464 -2.700000
v -1.800000 2.990464 -2.700000
v -1.500000 2.990464 -2.700000
v -1.200000 2.990464 -2.700000
v -0.900000 2.990464 -2.700000
v -0.600000 2.990464 -2.700000
v -0.300000 2.990464 -2.700000
v 0.000000 2.990464 -2.700000
v -3.000000 2.990464 -3.000000
v -2.700000 2.990464 -3.000000
v -2.400000 2.990464 -3.000000
v -2.100000 2.990464 -3.000000
v -1.800000 2.990464 -3.000000
v -1.500000 2.990464 -3.000000
v -1.200000 2.990464 -3.000000
v -0.900000 2.990464 -3.000000
v -0.600000 2.990464 -3.000000
v -0.300000 2.990464 -3.000000
v 0.000000 2.990464 -3.000000
v -2.845903 2.932700 0.000001
v -2.754545 2.932700 0.000001
v -2.845903 2.989644 0.000001
v -2.754545 2.989644 0.000001
v -2.845903 2.989644 -2.999999
v -2.754545 2.989644 -2.999999
v -2.845903 2.932700 -2.999999
v -2.754545 2.932700 -2.999999
v -0.155510 2.948810 -0.100018
v -0.088052 2.948810 -0.161627
v -0.155510 3.005754 -0.100018
v -0.088052 3.005754 -0.161627
v -2.834565 3.007246 -2.891827
v -2.767107 3.007246 -2.953435
v -2.834565 2.950303 -2.891827
v -2.767107 2.950303 -2.953435
v -0.163563 2.932700 0.000001
v -0.072205 2.932700 0.000001
v -0.163563 2.989644 0.000001
v -0.072205 2.989644 0.000001
v -0.163563 2.989644 -2.999999
v -0.072205 2.989644 -2.999999
v -0.163563 2.932700 -2.999999
v -0.072205 2.932700 -2.999999
vt 0.583730 0.928514
vt 0.036762 0.928514
vt 0.036762 0.918131
vt 0.583730 0.918131
vt 0.583730 0.951512
vt 0.036762 0.951512
vt 0.036762 0.941130
vt 0.583730 0.941130
vt 0.583730 0.940013
vt 0.036762 0.940013
vt 0.036762 0.929630
vt 0.583730 0.929630
vt 0.583730 0.917014
vt 0.036762 0.917014
vt 0.036762 0.906632
vt 0.583730 0.906632
vt 0.010072 0.843148
vt 0.010072 0.759786
vt 0.093434 0.759786
vt 0.093434 0.843148
vt 0.010072 0.676424
vt 0.093434 0.676424
vt 0.176796 0.759786
vt 0.176796 0.843148
vt 0.010072 0.593062
vt 0.093434 0.593062
vt 0.176796 0.676424
vt 0.260159 0.759786
vt 0.260159 0.843148
vt 0.010072 0.509700
vt 0.093434 0.509700
vt 0.176796 0.593062
vt 0.260159 0.676424
vt 0.343521 0.759786
vt 0.343521 0.843148
vt 0.010072 0.426337
vt 0.093434 0.426337
vt 0.176796 0.509700
vt 0.260159 0.593062
vt 0.343521 0.676424
vt 0.426883 0.759786
vt 0.426883 0.843148
vt 0.010072 0.342975
vt 0.093434 0.342975
vt 0.176796 0.426337
vt 0.260159 0.509700
vt 0.343521 0.593062
vt 0.426883 0.676424
vt 0.510245 0.759786
vt 0.510245 0.843148
vt 0.010072 0.259613
vt 0.093434 0.259613
vt 0.176796 0.342975
vt 0.260159 0.426337
vt 0.343521 0.509700
vt 0.426883 0.593062
vt 0.510245 0.676424
vt 0.593607 0.759786
vt 0.593607 0.843148
vt 0.010072 0.176251
vt 0.093434 0.176251
vt 0.176796 0.259613
vt 0.260159 0.342975
vt 0.343521 0.426337
vt 0.426883 0.509700
vt 0.510245 0.593062
vt 0.593607 0.676424
vt 0.676969 0.759786
vt 0.676969 0.843148
vt 0.010072 0.092889
vt 0.093434 0.092889
vt 0.176796 0.176251
vt 0.260159 0.259613
vt 0.343521 0.342975
vt 0.426883 0.426337
vt 0.510245 0.509700
vt 0.593607 0.593062
vt 0.676969 0.676424
vt 0.760332 0.759786
vt 0.760332 0.843148
vt 0.010072 0.009527
vt 0.093434 0.009527
vt 0.176796 0.092889
vt 0.260159 0.176251
vt 0.343521 0.259613
vt 0.426883 0.342975
vt 0.510245 0.426337
vt 0.593607 0.509700
vt 0.676969 0.593062
vt 0.760332 0.676424
vt 0.843693 0.759786
vt 0.843693 0.843148
vt 0.176796 0.009527
vt 0.260159 0.092889
vt 0.343521 0.176251
vt 0.426883 0.259613
vt 0.510245 0.342975
vt 0.593607 0.426337
vt 0.676969 0.509700
vt 0.760332 0.593062
vt 0.843693 0.676424
vt 0.260159 0.009527
vt 0.343521 0.092889
vt 0.426883 0.176251
vt 0.510245 0.259613
vt 0.593607 0.342975
vt 0.676969 0.426337
vt 0.760332 0.509700
vt 0.843693 0.593062
vt 0.343521 0.009527
vt 0.426883 0.092889
vt 0.510245 0.176251
vt 0.593607 0.259613
vt 0.676969 0.342975
vt 0.760332 0.426337
vt 0.843693 0.509700
vt 0.426883 0.009527
vt 0.510245 0.092889
vt 0.593607 0.176251
vt 0.676969 0.259613
vt 0.760332 0.342975
vt 0.843693 0.426337
vt 0.510245 0.009527
vt 0.593607 0.092889
vt 0.676969 0.176251
vt 0.760332 0.259613
vt 0.843693 0.342975
vt 0.593607 0.009527
vt 0.676969 0.092889
vt 0.760332 0.176251
vt 0.843693 0.259613
vt 0.676969 0.009527
vt 0.760332 0.092889
vt 0.843693 0.176251
vt 0.760332 0.009527
vt 0.843693 0.092889
vt 0.843693 0.009527
vt 0.033805 0.996721
vt 0.033805 0.969657
vt 0.922532 0.969657
vt 0.922532 0.996721
vt 0.859774 0.049747
vt 0.886403 0.049747
vt 0.886403 0.924179
vt 0.859774 0.924179
vt 0.937490 0.014404
vt 0.964233 0.014969
vt 0.964348 0.987763
vt 0.937606 0.987198
vt 0.036762 0.968761
vt 0.036762 0.952104
vt 0.583730 0.952104
vt 0.583730 0.968761
vt 0.897256 0.064742
vt 0.923885 0.064742
vt 0.923885 0.939174
vt 0.897256 0.939174
vt 0.545776 0.894016
vt 0.036766 0.893939
vt 0.036762 0.883557
vt 0.545772 0.883634
vt 0.545772 0.905438
vt 0.036762 0.905515
vt 0.036766 0.895133
vt 0.545776 0.895056
vn -0.000003 -1.000000 0.000007
vn -0.000003 -1.000000 0.000007
vn -0.000003 -1.000000 0.000007
vn -0.000003 -1.000000 0.000007
vn 0.000003 -1.000000 0.000013
vn 0.000003 -1.000000 0.000013
vn 0.000003 -1.000000 0.000013
vn 0.000003 -1.000000 0.000013
vn 0.000000 -1.000000 0.000015
vn 0.000000 -1.000000 0.000015
vn 0.000000 -1.000000 0.000015
vn 0.000000 -1.000000 0.000015
vn 0.000000 -1.000000 0.000015
vn 0.000000 -1.000000 0.000015
vn 0.000000 -1.000000 0.000015
vn 0.000000 -1.000000 0.000015
vn 0.000000 -1.000000 0.000015
vn 0.000000 -1.000000 0.000015
vn 0.000000 -1.000000 0.000015
vn 0.000000 -1.000000 0.000015
vn 0.000000 -1.000000 0.000015
vn 0.000000 -1.000000 0.000015
vn 0.000000 -1.000000 0.000015
vn 0.000000 -1.000000 0.000015
vn 0.000000 -1.000000 0.000015
vn 0.000000 -1.000000 0.000015
vn 0.000000 -1.000000 0.000015
vn 0.000000 -1.000000 0.000015
vn 0.000000 -1.000000 0.000015
vn 0.000000 -1.000000 0.000015
vn 0.000000 -1.000000 0.000015
vn 0.000000 -1.000000 0.000015
vn 0.000000 -1.000000 0.000015
vn 0.000000 -1.000000 0.000015
vn 0.000000 -1.000000 0.000015
vn 0.000000 -1.000000 0.000015
vn 0.000000 -1.000000 0.000015
vn 0.000000 -1.000000 0.000015
vn 0.000000 -1.000000 0.000015
vn 0.000000 -1.000000 0.000015
vn -0.000003 -0.968739 -0.248082
vn -0.000003 -0.968739 -0.248082
vn -0.000001 -0.968739 -0.248083
vn -0.000001 -0.968739 -0.248083
vn 0.000000 -0.968738 -0.248085
vn 0.000000 -0.968738 -0.248085
vn 0.000000 -0.968738 -0.248085
vn 0.000000 -0.968738 -0.248085
vn 0.000000 -0.968738 -0.248085
vn 0.000000 -0.968738 -0.248085
vn 0.000000 -0.968738 -0.248085
vn 0.000000 -0.968738 -0.248085
vn 0.000000 -0.968738 -0.248085
vn 0.000000 -0.968738 -0.248085
vn 0.000000 -0.968738 -0.248085
vn 0.000000 -0.968738 -0.248085
vn 0.000000 -0.968738 -0.248085
vn 0.000000 -0.968738 -0.248085
vn 0.000000 -0.968738 -0.248085
vn 0.000000 -0.968738 -0.248085
vn 0.000000 -0.968738 -0.248085
vn 0.000000 -0.968738 -0.248085
vn -0.000000 -0.968741 0.248075
vn -0.000000 -0.968741 0.248075
vn -0.000000 -0.968741 0.248075
vn -0.000000 -0.968741 0.248075
vn 0.000000 -0.968741 0.248074
vn 0.000000 -0.968741 0.248074
vn 0.000000 -0.968741 0.248074
vn 0.000000 -0.968741 0.248074
vn 0.000000 -0.968741 0.248075
vn 0.000000 -0.968741 0.248075
vn 0.000000 -0.968741 0.248074
vn 0.000000 -0.968741 0.248074
vn 0.000000 -0.968741 0.248074
vn 0.000000 -0.968741 0.248074
vn 0.000000 -0.968741 0.248074
vn 0.000000 -0.968741 0.248074
vn 0.000000 -0.968741 0.248074
vn 0.000000 -0.968741 0.248074
vn 0.000000 -0.968741 0.248075
vn 0.000000 -0.968741 0.248075
vn 0.000000 -0.968741 0.248075
vn 0.000000 -0.968741 0.248075
vn 0.000000 -1.000000 0.000001
vn 0.000000 -1.000000 0.000001
vn 0.000000 -1.000000 0.000001
vn 0.000000 -1.000000 0.000001
vn 0.000000 -1.000000 0.000001
vn 0.000000 -1.000000 0.000001
vn 0.000000 -1.000000 0.000001
vn 0.000000 -1.000000 0.000001
vn 0.000000 -1.000000 0.000001
vn 0.000000 -1.000000 0.000001
vn 0.000000 -1.000000 0.000001
vn 0.000000 -1.000000 0.000001
vn 0.000000 -1.000000 0.000001
vn 0.000000 -1.000000 0.000001
vn 0.000000 -1.000000 0.000001
vn 0.000000 -1.000000 0.000001
vn 0.000000 -1.000000 0.000001
vn 0.000000 -1.000000 0.000001
vn 0.000000 -1.000000 0.000001
vn 0.000000 -1.000000 0.000001
vn 0.000000 -1.000000 0.000001
vn 0.000000 -1.000000 0.000001
vn 0.000000 -1.000000 0.000001
vn 0.000000 -1.000000 0.000001
vn 0.000000 -1.000000 0.000001
vn 0.000000 -1.000000 0.000001
vn 0.000000 -1.000000 0.000001
vn 0.000000 -1.000000 0.000001
vn 0.000000 -1.000000 0.000001
vn 0.000000 -1.000000 0.000001
vn 0.000000 -1.000000 0.000001
vn 0.000000 -1.000000 0.000001
vn 0.000000 -1.000000 0.000001
vn 0.000000 -1.000000 0.000001
vn 0.000000 -1.000000 0.000001
vn 0.000000 -1.000000 0.000001
vn 0.000000 -1.000000 0.000001
vn 0.000000 -1.000000 0.000001
vn 0.000000 -1.000000 0.000001
vn 0.000000 -1.000000 0.000001
vn 0.000000 -0.968741 -0.248074
vn 0.000000 -0.968741 -0.248074
vn 0.000000 -0.968741 -0.248074
vn 0.000000 -0.968741 -0.248074
vn 0.000000 -0.968741 -0.248074
vn 0.000000 -0.968741 -0.248074
vn 0.000000 -0.968741 -0.248074
vn 0.000000 -0.968741 -0.248074
vn 0.000000 -0.968741 -0.248074
vn 0.000000 -0.968741 -0.248074
vn 0.000000 -0.968741 -0.248074
vn 0.000000 -0.968741 -0.248074
vn 0.000000 -0.968741 -0.248074
vn 0.000000 -0.968741 -0.248074
vn 0.000000 -0.968741 -0.248074
vn 0.000000 -0.968741 -0.248074
vn 0.000000 -0.968741 -0.248074
vn 0.000000 -0.968741 -0.248074
vn 0.000000 -0.968741 -0.248074
vn 0.000000 -0.968741 -0.248074
vn 0.000000 -0.968741 -0.248074
vn 0.000000 -0.968741 -0.248074
vn 0.000000 -0.968741 0.248073
vn 0.000000 -0.968741 0.248073
vn 0.000000 -0.968741 0.248073
vn 0.000000 -0.968741 0.248073
vn 0.000000 -0.968741 0.248073
vn 0.000000 -0.968741 0.248073
vn 0.000000 -0.968741 0.248073
vn 0.000000 -0.968741 0.248073
vn 0.000000 -0.968741 0.248073
vn 0.000000 -0.968741 0.248073
vn 0.000000 -0.968741 0.248073
vn 0.000000 -0.968741 0.248073
vn 0.000000 -0.968741 0.248073
vn 0.000000 -0.968741 0.248073
vn 0.000000 -0.968741 0.248073
vn 0.000000 -0.968741 0.248073
vn 0.000000 -0.968741 0.248073
vn 0.000000 -0.968741 0.248073
vn 0.000000 -0.968741 0.248073
vn 0.000000 -0.968741 0.248073
vn 0.000000 -0.968741 0.248073
vn 0.000000 -0.968741 0.248073
vn 0.000000 -1.000000 0.000001
vn 0.000000 -1.000000 0.000001
vn 0.000000 -1.000000 0.000001
vn 0.000000 -1.000000 0.000001
vn 0.000000 -1.000000 0.000001
vn 0.000000 -1.000000 0.000001
vn 0.000000 -1.000000 0.000001
vn 0.000000 -1.000000 0.000001
vn 0.000000 -1.000000 0.000001
vn 0.000000 -1.000000 0.000001
vn 0.000000 -1.000000 0.000001
vn 0.000000 -1.000000 0.000001
vn 0.000000 -1.000000 0.000001
vn 0.000000 -1.000000 0.000001
vn 0.000000 -1.000000 0.000001
vn 0.000000 -1.000000 0.000001
vn 0.000000 -1.000000 0.000001
vn 0.000000 -1.000000 0.000001
vn 0.000000 -1.000000 0.000001
vn 0.000000 -1.000000 0.000001
vn 0.000000 -1.000000 0.000001
vn 0.000000 -1.000000 0.000001
vn 0.000000 -1.000000 0.000001
vn 0.000000 -1.000000 0.000001
vn 0.000000 -1.000000 0.000001
vn 0.000000 -1.000000 0.000001
vn 0.000000 -1.000000 0.000001
vn 0.000000 -1.000000 0.000001
vn 0.000000 -1.000000 0.000001
vn 0.000000 -1.000000 0.000001
vn 0.000000 -1.000000 0.000001
vn 0.000000 -1.000000 0.000001
vn 0.000000 -1.000000 0.000001
vn 0.000000 -1.000000 0.000001
vn 0.000000 -1.000000 0.000001
vn 0.000000 -1.000000 0.000001
vn 0.000000 -1.000000 0.000001
vn 0.000000 -1.000000 0.000001
vn 0.000000 -1.000000 0.000001
vn 0.000000 -1.000000 0.000001
vn 0.000000 -0.968741 -0.248075
vn 0.000000 -0.968741 -0.248075
vn 0.000000 -0.968741 -0.248075
vn 0.000000 -0.968741 -0.248075
vn 0.000000 -0.968741 -0.248075
vn 0.000000 -0.968741 -0.248075
vn 0.000000 -0.968741 -0.248075
vn 0.000000 -0.968741 -0.248075
vn 0.000000 -0.968741 -0.248075
vn 0.000000 -0.968741 -0.248075
vn 0.000000 -0.968741 -0.248074
vn 0.000000 -0.968741 -0.248074
vn 0.000000 -0.968741 -0.248075
vn 0.000000 -0.968741 -0.248075
vn 0.000000 -0.968741 -0.248075
vn 0.000000 -0.968741 -0.248075
vn 0.000000 -0.968741 -0.248075
vn 0.000000 -0.968741 -0.248075
vn 0.000000 -0.968741 -0.248075
vn 0.000000 -0.968741 -0.248075
vn 0.000000 -0.968741 -0.248075
vn 0.000000 -0.968741 -0.248075
vn 0.000000 -0.968741 0.248075
vn 0.000000 -0.968741 0.248075
vn 0.000000 -0.968741 0.248075
vn 0.000000 -0.968741 0.248075
vn 0.000000 -0.968741 0.248076
vn 0.000000 -0.968741 0.248076
vn 0.000000 -0.968741 0.248076
vn 0.000000 -0.968741 0.248076
vn 0.000000 -0.968741 0.248075
vn 0.000000 -0.968741 0.248075
vn 0.000000 -0.968741 0.248075
vn 0.000000 -0.968741 0.248075
vn 0.000000 -0.968741 0.248075
vn 0.000000 -0.968741 0.248075
vn 0.000000 -0.968741 0.248076
vn 0.000000 -0.968741 0.248076
vn 0.000000 -0.968741 0.248076
vn 0.000000 -0.968741 0.248076
vn 0.000000 -0.968741 0.248075
vn 0.000000 -0.968741 0.248075
vn 0.000000 -0.968741 0.248075
vn 0.000000 -0.968741 0.248075
vn 0.000000 -1.000000 0.000000
vn 0.000000 -1.000000 0.000000
vn 0.000000 -1.000000 0.000000
vn 0.000000 -1.000000 0.000000
vn 0.000000 -1.000000 0.000000
vn 0.000000 -1.000000 0.000000
vn 0.000000 -1.000000 0.000000
vn 0.000000 -1.000000 0.000000
vn 0.000000 -1.000000 0.000000
vn 0.000000 -1.000000 0.000000
vn 0.000000 -1.000000 0.000000
vn 0.000000 -1.000000 0.000000
vn 0.000000 -1.000000 0.000000
vn 0.000000 -1.000000 0.000000
vn 0.000000 -1.000000 0.000000
vn 0.000000 -1.000000 0.000000
vn 0.000000 -1.000000 0.000000
vn 0.000000 -1.000000 0.000000
vn 0.000000 -1.000000 0.000000
vn 0.000000 -1.000000 0.000000
vn 0.000000 -1.000000 0.000000
vn 0.000000 -1.000000 0.000000
vn 0.000000 -1.000000 0.000000
vn 0.000000 -1.000000 0.000000
vn 0.000000 -1.000000 0.000000
vn 0.000000 -1.000000 0.000000
vn 0.000000 -1.000000 0.000000
vn 0.000000 -1.000000 0.000000
vn 0.000000 -1.000000 0.000000
vn 0.000000 -1.000000 0.000000
vn 0.000000 -1.000000 0.000000
vn 0.000000 -1.000000 0.000000
vn 0.000000 -1.000000 0.000000
vn 0.000000 -1.000000 0.000000
vn 0.000000 -1.000000 0.000000
vn 0.000000 -1.000000 0.000000
vn 0.000000 -1.000000 0.000000
vn 0.000000 -1.000000 0.000000
vn 0.000000 -1.000000 0.000000
vn 0.000000 -1.000000 0.000000
vn 0.000000 1.000000 0.000000
vn 0.000000 1.000000 0.000000
vn 0.000000 1.000000 0.000000
vn 0.000000 1.000000 0.000000
vn 0.000000 -1.000000 0.000000
vn 0.000000 -1.000000 0.000000
vn 0.000000 -1.000000 0.000000
vn 0.000000 -1.000000 0.000000
vn 1.000000 0.000000 0.000000
vn 1.000000 0.000000 0.000000
vn 1.000000 0.000000 0.000000
vn 1.000000 0.000000 0.000000
vn -1.000000 0.000000 0.000000
vn -1.000000 0.000000 0.000000
vn -1.000000 0.000000 0.000000
vn -1.000000 0.000000 0.000000
vn -0.000260 -1.000000 -0.000286
vn -0.000260 -1.000000 -0.000286
vn -0.000260 -1.000000 -0.000286
vn -0.000260 -1.000000 -0.000286
vn 0.721527 0.000000 -0.692386
vn 0.721527 0.000000 -0.692386
vn 0.721527 0.000000 -0.692386
vn 0.721527 0.000000 -0.692386
vn -0.721527 0.000000 0.692386
vn -0.721527 0.000000 0.692386
vn -0.721527 0.000000 0.692386
vn -0.721527 0.000000 0.692386
vn 0.000000 1.000000 0.000000
vn 0.000000 1.000000 0.000000
vn 0.000000 1.000000 0.000000
vn 0.000000 1.000000 0.000000
vn 0.000000 -1.000000 0.000000
vn 0.000000 -1.000000 0.000000
vn 0.000000 -1.000000 0.000000
vn 0.000000 -1.000000 0.000000
vn 1.000000 0.000000 0.000000
vn 1.000000 0.000000 0.000000
vn 1.000000 0.000000 0.000000
vn 1.000000 0.000000 0.000000
vn -1.000000 0.000000 0.000000
vn -1.000000 0.000000 0.000000
vn -1.000000 0.000000 0.000000
vn -1.000000 0.000000 0.000000
s off
g pPlane44
usemtl initialShadingGroup
f 1/17/1 12/18/2 13/19/3 2/20/4
f 2/20/5 13/19/6 14/23/7 3/24/8
f 3/24/9 14/23/10 15/28/11 4/29/12
f 4/29/13 15/28/14 16/34/15 5/35/16
f 5/35/17 16/34/18 17/41/19 6/42/20
f 6/42/21 17/41/22 18/49/23 7/50/24
f 7/50/25 18/49/26 19/58/27 8/59/28
f 8/59/29 19/58/30 20/68/31 9/69/32
f 9/69/33 20/68/34 21/79/35 10/80/36
f 10/80/37 21/79/38 22/91/39 11/92/40
s 1
f 12/18/41 23/21/42 24/22/43 13/19/44
f 13/19/44 24/22/43 25/27/45 14/23/46
f 14/23/46 25/27/45 26/33/47 15/28/48
f 15/28/48 26/33/47 27/40/49 16/34/50
f 16/34/50 27/40/49 28/48/51 17/41/52
f 17/41/52 28/48/51 29/57/53 18/49/54
f 18/49/54 29/57/53 30/67/55 19/58/56
f 19/58/56 30/67/55 31/78/57 20/68/58
f 20/68/58 31/78/57 32/90/59 21/79/60
f 21/79/60 32/90/59 33/101/61 22/91/62
s 2
f 23/21/63 34/25/64 35/26/65 24/22/66
f 24/22/66 35/26/65 36/32/67 25/27/68
f 25/27/68 36/32/67 37/39/69 26/33/70
f 26/33/70 37/39/69 38/47/71 27/40/72
f 27/40/72 38/47/71 39/56/73 28/48/74
f 28/48/74 39/56/73 40/66/75 29/57/76
f 29/57/76 40/66/75 41/77/77 30/67/78
f 30/67/78 41/77/77 42/89/79 31/78/80
f 31/78/80 42/89/79 43/100/81 32/90/82
f 32/90/82 43/100/81 44/109/83 33/101/84
s off
f 34/25/85 45/30/86 46/31/87 35/26/88
f 35/26/89 46/31/90 47/38/91 36/32/92
f 36/32/93 47/38/94 48/46/95 37/39/96
f 37/39/97 48/46/98 49/55/99 38/47/100
f 38/47/101 49/55/102 50/65/103 39/56/104
f 39/56/105 50/65/106 51/76/107 40/66/108
f 40/66/109 51/76/110 52/88/111 41/77/112
f 41/77/113 52/88/114 53/99/115 42/89/116
f 42/89/117 53/99/118 54/108/119 43/100/120
f 43/100/121 54/108/122 55/116/123 44/109/124
s 3
f 45/30/125 56/36/126 57/37/127 46/31/128
f 46/31/128 57/37/127 58/45/129 47/38/130
f 47/38/130 58/45/129 59/54/131 48/46/132
f 48/46/132 59/54/131 60/64/133 49/55/134
f 49/55/134 60/64/133 61/75/135 50/65/136
f 50/65/136 61/75/135 62/87/137 51/76/138
f 51/76/138 62/87/137 63/98/139 52/88/140
f 52/88/140 63/98/139 64/107/141 53/99/142
f 53/99/142 64/107/141 65/115/143 54/108/144
f 54/108/144 65/115/143 66/122/145 55/116/146
s 4
f 56/36/147 67/43/148 68/44/149 57/37/150
f 57/37/150 68/44/149 69/53/151 58/45/152
f 58/45/152 69/53/151 70/63/153 59/54/154
f 59/54/154 70/63/153 71/74/155 60/64/156
f 60/64/156 71/74/155 72/86/157 61/75/158
f 61/75/158 72/86/157 73/97/159 62/87/160
f 62/87/160 73/97/159 74/106/161 63/98/162
f 63/98/162 74/106/161 75/114/163 64/107/164
f 64/107/164 75/114/163 76/121/165 65/115/166
f 65/115/166 76/121/165 77/127/167 66/122/168
s off
f 67/43/169 78/51/170 79/52/171 68/44/172
f 68/44/173 79/52/174 80/62/175 69/53/176
f 69/53/177 80/62/178 81/73/179 70/63/180
f 70/63/181 81/73/182 82/85/183 71/74/184
f 71/74/185 82/85/186 83/96/187 72/86/188
f 72/86/189 83/96/190 84/105/191 73/97/192
f 73/97/193 84/105/194 85/113/195 74/106/196
f 74/106/197 85/113/198 86/120/199 75/114/200
f 75/114/201 86/120/202 87/126/203 76/121/204
f 76/121/205 87/126/206 88/131/207 77/127/208
s 5
f 78/51/209 89/60/210 90/61/211 79/52/212
f 79/52/212 90/61/211 91/72/213 80/62/214
f 80/62/214 91/72/213 92/84/215 81/73/216
f 81/73/216 92/84/215 93/95/217 82/85/218
f 82/85/218 93/95/217 94/104/219 83/96/220
f 83/96/220 94/104/219 95/112/221 84/105/222
f 84/105/222 95/112/221 96/119/223 85/113/224
f 85/113/224 96/119/223 97/125/225 86/120/226
f 86/120/226 97/125/225 98/130/227 87/126/228
f 87/126/228 98/130/227 99/134/229 88/131/230
s 6
f 89/60/231 100/70/232 101/71/233 90/61/234
f 90/61/234 101/71/233 102/83/235 91/72/236
f 91/72/236 102/83/235 103/94/237 92/84/238
f 92/84/238 103/94/237 104/103/239 93/95/240
f 93/95/240 104/103/239 105/111/241 94/104/242
f 94/104/242 105/111/241 106/118/243 95/112/244
f 95/112/244 106/118/243 107/124/245 96/119/246
f 96/119/246 107/124/245 108/129/247 97/125/248
f 97/125/248 108/129/247 109/133/249 98/130/250
f 98/130/250 109/133/249 110/136/251 99/134/252
s off
f 100/70/253 111/81/254 112/82/255 101/71/256
f 101/71/257 112/82/258 113/93/259 102/83/260
f 102/83/261 113/93/262 114/102/263 103/94/264
f 103/94/265 114/102/266 115/110/267 104/103/268
f 104/103/269 115/110/270 116/117/271 105/111/272
f 105/111/273 116/117/274 117/123/275 106/118/276
f 106/118/277 117/123/278 118/128/279 107/124/280
f 107/124/281 118/128/282 119/132/283 108/129/284
f 108/129/285 119/132/286 120/135/287 109/133/288
f 109/133/289 120/135/290 121/137/291 110/136/292
f 124/138/293 125/139/294 127/140/295 126/141/296
f 128/142/297 129/143/298 123/144/299 122/145/300
f 123/1/301 129/2/302 127/3/303 125/4/304
f 128/5/305 122/6/306 124/7/307 126/8/308
f 136/146/309 137/147/310 131/148/311 130/149/312
f 131/158/313 137/159/314 135/160/315 133/161/316
f 136/162/317 130/163/318 132/164/319 134/165/320
f 140/150/321 141/151/322 143/152/323 142/153/324
f 144/154/325 145/155/326 139/156/327 138/157/328
f 139/9/329 145/10/330 143/11/331 141/12/332
f 144/13/333 138/14/334 140/15/335 142/16/336
